# xmcd CD database file
#
# Track frame offsets:
#	150
#	12481
#	25112
#	40302
#	55248
#	68630
#	81727
#	96162
#	111127
#	125790
#	138892
#	153708
#	166105
#	177446
#	192263
#	207196
#	220904
#	233853
#	248775
#	260873
#	275561
#	288839
#
# Disc length: 4166 seconds
#
# Revision: 1
# Processed by: cddbd v1.5.1PL0 Copyright (c) Steve Scherf et al.
# Submitted via: CDex 1.51
#
DISCID=4c104416
DTITLE=Duke Ellington - Golden Greats (3)
DYEAR=1900
DGENRE=Jazz
TTITLE0=Ko Ko
TTITLE1=At a Dixie Roadside Diner
TTITLE2=Sepia Panorama
TTITLE3=Morning Glory
TTITLE4=Conga Brava
TTITLE5=Me and You
TTITLE6=Cotton Tail
TTITLE7=Dusk
TTITLE8=In a Mellotone
TTITLE9=Take The 'A' Train
TTITLE10=I Got It Bad and That Ain't Good
TTITLE11=Chelsea Bridge
TTITLE12=The 'C' Jam Blues
TTITLE13=Blue Serge
TTITLE14=Never Know Lament
TTITLE15=Perdigo
TTITLE16=Bojangles
TTITLE17=Concerto for Cootie
TTITLE18=Main Stem
TTITLE19=I'm Beginning to See the Light
TTITLE20=Transbluency
TTITLE21=Carnegie Hall Concert Brown Betty
EXTD=
EXTT0=
EXTT1=
EXTT2=
EXTT3=
EXTT4=
EXTT5=
EXTT6=
EXTT7=
EXTT8=
EXTT9=
EXTT10=
EXTT11=
EXTT12=
EXTT13=
EXTT14=
EXTT15=
EXTT16=
EXTT17=
EXTT18=
EXTT19=
EXTT20=
EXTT21=
PLAYORDER=
